<?xml version="1.0" standalone="no"?>
<!DOCTYPE svg PUBLIC "-//W3C//DTD SVG 20010904//EN"
 "http://www.w3.org/TR/2001/REC-SVG-20010904/DTD/svg10.dtd">
<svg version="1.0" xmlns="http://www.w3.org/2000/svg"
 width="836.000000pt" height="836.000000pt" viewBox="0 0 836.000000 836.000000"
 preserveAspectRatio="xMidYMid meet">
<metadata>
Created by potrace 1.11, written by Peter Selinger 2001-2013
</metadata>
<g transform="translate(0.000000,836.000000) scale(0.100000,-0.100000)"
fill="#000000" stroke="none">
<path d="M1340 4199 l0 -4161 24 4 c14 3 30 2 36 -2 7 -4 27 -4 46 0 18 4 35
5 38 3 7 -7 105 -7 112 0 3 2 20 1 38 -3 19 -4 40 -4 46 0 7 4 25 4 40 0 15
-4 33 -4 40 0 6 4 27 4 46 0 19 -4 36 -4 39 0 3 4 21 4 40 0 19 -4 51 -4 70 0
19 4 37 4 40 0 3 -4 21 -4 40 0 19 4 37 4 40 0 3 -4 21 -4 40 0 19 4 37 4 40
0 3 -4 21 -4 40 0 19 4 37 4 40 0 3 -4 21 -4 40 0 19 4 37 4 40 0 3 -4 21 -4
40 0 19 4 37 4 40 0 3 -4 21 -4 40 0 19 4 37 4 40 0 3 -4 21 -4 40 0 19 4 37
4 40 0 3 -4 21 -4 40 0 19 4 37 4 40 0 3 -4 21 -4 40 0 19 4 37 4 40 0 3 -4
21 -4 40 0 19 4 37 5 39 1 6 -9 75 -2 77 8 1 3 2 686 3 1518 1 832 5 1515 8
1518 5 5 772 8 1363 5 l140 -1 35 -47 c35 -47 52 -68 80 -102 8 -9 26 -32 40
-50 14 -19 49 -63 77 -99 29 -36 56 -70 60 -76 5 -5 19 -24 33 -41 14 -17 39
-48 55 -69 17 -22 40 -50 53 -63 12 -14 22 -28 22 -31 0 -3 13 -20 28 -37 15
-17 38 -46 52 -64 14 -18 35 -45 47 -59 12 -14 85 -107 164 -206 78 -99 145
-181 150 -183 5 -2 9 -9 9 -15 0 -7 15 -28 33 -47 18 -19 44 -51 57 -70 22
-32 47 -63 75 -94 6 -6 24 -29 40 -51 l30 -40 0 -797 c1 -438 4 -800 7 -804 8
-8 115 -7 128 1 6 3 10 2 10 -3 0 -5 17 -6 40 -2 26 5 41 3 44 -4 3 -8 5 -7 5
1 1 8 10 9 29 4 15 -5 36 -5 47 -1 11 4 31 4 45 0 14 -4 34 -4 45 0 11 4 29 4
40 0 11 -4 29 -4 40 0 11 4 31 4 45 0 14 -4 34 -4 45 0 11 4 25 5 32 3 19 -7
113 -9 113 -2 0 4 18 3 40 -1 22 -4 42 -5 44 -2 7 6 116 6 122 -1 3 -3 18 -2
33 3 16 4 34 4 41 0 6 -4 27 -4 46 0 18 4 35 5 38 3 7 -7 105 -7 112 0 3 2 20
1 38 -3 19 -4 40 -4 46 0 7 4 25 4 40 0 15 -4 33 -4 40 0 7 4 25 4 41 0 15 -5
30 -5 34 -2 3 3 21 5 40 4 l33 -3 0 1036 0 1035 -74 97 c-41 54 -83 108 -94
119 -11 12 -20 25 -20 28 0 4 -13 21 -30 39 -16 18 -30 35 -30 39 0 4 -6 13
-13 20 -7 7 -44 54 -82 103 -135 176 -200 260 -205 265 -3 3 -17 21 -30 40
-14 19 -32 43 -40 53 -36 44 -46 57 -65 83 -11 15 -71 93 -133 173 -62 80
-121 157 -130 170 -9 13 -22 28 -27 35 -6 6 -37 47 -70 91 -33 44 -64 85 -70
91 -5 6 -21 26 -35 44 -14 18 -44 57 -67 86 -24 29 -43 57 -43 62 0 6 -4 12
-8 14 -8 3 -55 62 -179 225 l-55 73 18 27 c9 15 21 32 26 38 7 8 46 61 134
180 95 130 187 253 199 268 8 9 15 22 15 27 0 6 3 10 8 10 4 0 18 17 32 38 14
20 30 43 37 50 7 7 20 26 30 42 9 17 21 30 25 30 4 0 8 6 8 14 0 8 4 16 8 18
7 3 32 36 181 238 30 41 57 77 60 80 4 3 22 28 40 55 19 28 37 52 41 55 3 3
16 23 30 45 21 33 24 48 20 85 -3 25 -3 57 1 71 4 15 3 32 -1 38 -4 7 -4 29
-1 49 3 20 4 57 1 82 -3 25 -3 56 1 70 3 14 3 36 -1 50 -4 14 -3 35 1 47 5 12
4 25 -1 28 -5 3 -5 18 0 34 4 15 4 34 0 42 -5 7 -6 17 -3 21 2 5 4 39 3 76 -1
37 -1 78 0 92 1 14 1 31 1 38 -2 33 -3 171 -1 202 1 14 1 31 1 38 -2 22 -3
155 -2 192 0 8 0 35 0 60 -1 64 -1 63 4 85 2 11 1 31 -3 45 -3 14 -3 42 0 63
4 20 3 40 -2 43 -12 8 -1478 7 -1486 -1 -3 -3 -6 -245 -6 -538 l-1 -532 -35
-44 c-19 -25 -42 -52 -50 -61 -8 -9 -31 -36 -50 -59 -68 -85 -232 -284 -243
-296 -7 -7 -19 -23 -27 -35 -8 -13 -22 -30 -30 -39 -15 -15 -85 -100 -120
-145 -8 -10 -29 -35 -46 -55 -17 -20 -91 -110 -164 -201 -74 -91 -140 -171
-147 -178 -7 -8 -25 -29 -39 -48 -27 -35 -24 -35 -151 -35 -18 0 -45 0 -60 0
-16 0 -37 1 -48 1 -11 1 -27 1 -35 0 -8 0 -24 0 -35 0 -11 1 -26 1 -32 1 -7 0
-44 0 -83 0 -38 0 -77 0 -85 0 -8 -1 -26 -1 -40 -1 -14 0 -33 0 -42 0 -10 0
-27 0 -38 0 -11 1 -26 1 -32 1 -108 -3 -153 -2 -160 2 -4 2 -17 1 -28 -3 -11
-4 -32 -4 -46 0 -15 4 -32 4 -39 0 -7 -4 -24 -4 -39 0 -14 4 -35 4 -46 0 -11
-4 -33 -3 -50 1 l-30 8 0 1896 1 1895 -768 0 -768 0 0 -4161z"/>
</g>
</svg>
